<svg width="100" height="100" viewBox="0 0 765 765" fill="none" xmlns="http://www.w3.org/2000/svg">
<path d="M107.578 469.16C153.789 469.16 191.25 431.699 191.25 385.488C191.25 339.278 153.789 301.816 107.578 301.816C61.3674 301.816 23.9062 339.278 23.9062 385.488C23.9062 431.699 61.3674 469.16 107.578 469.16Z" fill="#494957"/>
<path d="M657.422 469.16C703.633 469.16 741.094 431.699 741.094 385.488C741.094 339.278 703.633 301.816 657.422 301.816C611.211 301.816 573.75 339.278 573.75 385.488C573.75 431.699 611.211 469.16 657.422 469.16Z" fill="#494957"/>
<path d="M382.5 286.875C363.587 286.875 345.099 292.483 329.374 302.991C313.648 313.498 301.392 328.433 294.154 345.906C286.916 363.379 285.023 382.606 288.712 401.156C292.402 419.705 301.51 436.744 314.883 450.117C328.256 463.49 345.295 472.598 363.844 476.288C382.394 479.977 401.621 478.084 419.094 470.846C436.567 463.608 451.502 451.352 462.009 435.626C472.517 419.901 478.125 401.413 478.125 382.5C478.096 357.147 468.013 332.841 450.086 314.914C432.159 296.987 407.853 286.903 382.5 286.875V286.875ZM382.5 454.219C368.315 454.219 354.449 450.013 342.655 442.132C330.861 434.251 321.669 423.05 316.24 409.946C310.812 396.841 309.392 382.42 312.159 368.508C314.927 354.596 321.757 341.817 331.787 331.787C341.817 321.757 354.596 314.927 368.508 312.159C382.42 309.392 396.841 310.812 409.946 316.241C423.05 321.669 434.251 330.861 442.132 342.655C450.013 354.449 454.219 368.315 454.219 382.5C454.197 401.514 446.634 419.744 433.189 433.189C419.744 446.634 401.514 454.197 382.5 454.219Z" fill="#494957"/>
<path d="M107.578 286.875C88.6653 286.875 70.1772 292.483 54.4517 302.991C38.7263 313.498 26.4698 328.433 19.2321 345.906C11.9945 363.379 10.1008 382.606 13.7905 401.156C17.4802 419.705 26.5876 436.744 39.961 450.117C53.3344 463.49 70.3732 472.598 88.9226 476.288C107.472 479.977 126.699 478.084 144.172 470.846C161.645 463.608 176.58 451.352 187.087 435.626C197.595 419.901 203.203 401.413 203.203 382.5C203.175 357.147 193.091 332.841 175.164 314.914C157.237 296.987 132.931 286.903 107.578 286.875V286.875ZM107.578 454.219C93.3935 454.219 79.5274 450.013 67.7333 442.132C55.9392 434.251 46.7469 423.05 41.3186 409.946C35.8904 396.841 34.4701 382.42 37.2374 368.508C40.0047 354.596 46.8353 341.817 56.8653 331.787C66.8954 321.757 79.6744 314.927 93.5865 312.159C107.499 309.392 121.919 310.812 135.024 316.241C148.129 321.669 159.33 330.861 167.21 342.655C175.091 354.449 179.297 368.315 179.297 382.5C179.275 401.514 171.712 419.744 158.267 433.189C144.822 446.634 126.592 454.197 107.578 454.219V454.219Z" fill="#D8D8D8"/>
<path d="M657.422 286.875C638.509 286.875 620.021 292.483 604.295 302.991C588.57 313.498 576.314 328.433 569.076 345.906C561.838 363.379 559.945 382.606 563.634 401.156C567.324 419.705 576.431 436.744 589.805 450.117C603.178 463.49 620.217 472.598 638.766 476.288C657.316 479.977 676.543 478.084 694.016 470.846C711.489 463.608 726.424 451.352 736.931 435.626C747.439 419.901 753.047 401.413 753.047 382.5C753.018 357.147 742.935 332.841 725.008 314.914C707.081 296.987 682.775 286.903 657.422 286.875V286.875ZM657.422 454.219C643.237 454.219 629.371 450.013 617.577 442.132C605.783 434.251 596.591 423.05 591.162 409.946C585.734 396.841 584.314 382.42 587.081 368.508C589.848 354.596 596.679 341.817 606.709 331.787C616.739 321.757 629.518 314.927 643.43 312.159C657.342 309.392 671.763 310.812 684.867 316.241C697.972 321.669 709.173 330.861 717.054 342.655C724.934 354.449 729.141 368.315 729.141 382.5C729.119 401.514 721.556 419.744 708.111 433.189C694.666 446.634 676.436 454.197 657.422 454.219Z" fill="#D8D8D8"/>
</svg>
